<svg id="Layer_1" data-name="Layer 1" xmlns="http://www.w3.org/2000/svg" xmlns:xlink="http://www.w3.org/1999/xlink" width="200" height="58.4" viewBox="0 0 199.41 59.47">
  <defs>
    <style>
      .cls-1 {
        fill: url(#linear-gradient);
      }

      .cls-2 {
        fill: url(#linear-gradient-2);
      }

      .cls-3 {
        fill: url(#linear-gradient-3);
      }

      .cls-4 {
        fill: none;
        stroke-miterlimit: 10;
        stroke-width: 1.5px;
        stroke: url(#linear-gradient-4);
      }

      .cls-5 {
        fill: #fff;
      }
    </style>
    <linearGradient id="linear-gradient" x1="594.26" y1="4997.85" x2="594.26" y2="5010.65" gradientUnits="userSpaceOnUse">
      <stop offset="0.05" stop-color="#a887f9"/>
      <stop offset="1" stop-color="#8224e3"/>
    </linearGradient>
    <linearGradient id="linear-gradient-2" x1="585.79" y1="4999.04" x2="602.73" y2="4999.04" gradientUnits="userSpaceOnUse">
      <stop offset="0.04" stop-color="#a887f9"/>
      <stop offset="0.99" stop-color="#8224e3"/>
    </linearGradient>
    <linearGradient id="linear-gradient-3" x1="43.92" y1="6.53" x2="49.41" y2="6.53" gradientUnits="userSpaceOnUse">
      <stop offset="0" stop-color="#39b54a"/>
      <stop offset="1" stop-color="#d9e021"/>
    </linearGradient>
    <linearGradient id="linear-gradient-4" x1="8.71" y1="50.77" x2="50.77" y2="8.71" gradientUnits="userSpaceOnUse">
      <stop offset="0" stop-color="#8224e3"/>
      <stop offset="1" stop-color="#a887f9" stop-opacity="0"/>
    </linearGradient>
  </defs>
  <title>white-logo</title>
  <path class="cls-1" d="M594.26,4985.15a13.89,13.89,0,1,0,13.9,13.89A13.89,13.89,0,0,0,594.26,4985.15Zm0,22.36a8.47,8.47,0,1,1,8.47-8.47A8.47,8.47,0,0,1,594.26,5007.51Z" transform="translate(-564.76 -4969.78)"/>
  <path class="cls-2" d="M594.26,4990.57a8.47,8.47,0,1,0,8.47,8.47A8.47,8.47,0,0,0,594.26,4990.57Zm0,14.18A5.71,5.71,0,1,1,600,4999,5.71,5.71,0,0,1,594.26,5004.75Z" transform="translate(-564.76 -4969.78)"/>
  <circle class="cls-3" cx="46.66" cy="6.53" r="2.75"/>
  <circle class="cls-4" cx="29.74" cy="29.74" r="28.99"/>
  <g>
    <path class="cls-5" d="M647.25,5011.72a8.59,8.59,0,0,1-7.62-4.35,9.23,9.23,0,0,1-1.18-4.55v-14.59a1.56,1.56,0,0,1,.46-1.18,1.61,1.61,0,0,1,1.17-.45,1.54,1.54,0,0,1,1.63,1.63v8.64a8.43,8.43,0,0,1,2.71-2.13,8.1,8.1,0,0,1,7.66.39,8.29,8.29,0,0,1,2.93,3.17,9.46,9.46,0,0,1,1.07,4.52,8.91,8.91,0,0,1-1.17,4.55,8.62,8.62,0,0,1-7.66,4.35Zm0-2.88a5.41,5.41,0,0,0,2.91-.79,5.68,5.68,0,0,0,2-2.15,6.35,6.35,0,0,0,.75-3.08,6.21,6.21,0,0,0-.75-3.07,5.85,5.85,0,0,0-2-2.13,5.8,5.8,0,0,0-5.81,0,5.69,5.69,0,0,0-2,2.13,6.31,6.31,0,0,0-.74,3.07,6.46,6.46,0,0,0,.74,3.08,5.53,5.53,0,0,0,2,2.15A5.42,5.42,0,0,0,647.25,5008.84Z" transform="translate(-564.76 -4969.78)"/>
    <path class="cls-5" d="M669.17,5011.72a9.59,9.59,0,0,1-4.72-1.14,8.27,8.27,0,0,1-3.24-3.13,9,9,0,0,1-1.16-4.59,9.38,9.38,0,0,1,1.1-4.63,8,8,0,0,1,3.06-3.13,8.7,8.7,0,0,1,4.48-1.14,8,8,0,0,1,4.28,1.1,7.2,7.2,0,0,1,2.74,3,10.07,10.07,0,0,1,.94,4.47,1.34,1.34,0,0,1-.41,1,1.49,1.49,0,0,1-1.06.39H662.29v-2.55h12.8l-1.32.89a6.72,6.72,0,0,0-.64-2.86,4.8,4.8,0,0,0-1.72-2,4.87,4.87,0,0,0-2.72-.74,5.84,5.84,0,0,0-3.12.8,5.15,5.15,0,0,0-2,2.19,7.15,7.15,0,0,0-.67,3.16,6.05,6.05,0,0,0,.8,3.13,5.9,5.9,0,0,0,2.2,2.18,6.49,6.49,0,0,0,3.24.8,6.24,6.24,0,0,0,2-.37,6.56,6.56,0,0,0,1.68-.85,1.83,1.83,0,0,1,1-.37,1.36,1.36,0,0,1,1,.34,1.49,1.49,0,0,1,.58,1.06,1.15,1.15,0,0,1-.51,1,9.21,9.21,0,0,1-2.71,1.41A9.66,9.66,0,0,1,669.17,5011.72Z" transform="translate(-564.76 -4969.78)"/>
    <path class="cls-5" d="M688.4,5011.72a9.59,9.59,0,0,1-4.72-1.14,8.18,8.18,0,0,1-3.23-3.13,9,9,0,0,1-1.17-4.59,9.49,9.49,0,0,1,1.1-4.63,8.08,8.08,0,0,1,3.06-3.13,8.7,8.7,0,0,1,4.48-1.14,8.1,8.1,0,0,1,4.29,1.1,7.24,7.24,0,0,1,2.73,3,10.07,10.07,0,0,1,.95,4.47,1.35,1.35,0,0,1-.42,1,1.49,1.49,0,0,1-1.06.39H681.52v-2.55h12.8l-1.31.89a7,7,0,0,0-.64-2.86,4.68,4.68,0,0,0-4.45-2.74,5.84,5.84,0,0,0-3.12.8,5.15,5.15,0,0,0-2,2.19,7.15,7.15,0,0,0-.67,3.16,6.05,6.05,0,0,0,.8,3.13,5.86,5.86,0,0,0,2.21,2.18,6.45,6.45,0,0,0,3.23.8,6.19,6.19,0,0,0,2-.37,6.56,6.56,0,0,0,1.68-.85,1.85,1.85,0,0,1,1-.37,1.4,1.4,0,0,1,1,.34,1.51,1.51,0,0,1,.57,1.06,1.15,1.15,0,0,1-.51,1,9.28,9.28,0,0,1-2.7,1.41A9.77,9.77,0,0,1,688.4,5011.72Z" transform="translate(-564.76 -4969.78)"/>
    <path class="cls-5" d="M701.68,5005.22a1.57,1.57,0,0,1-1.63-1.63v-15.36a1.56,1.56,0,0,1,.46-1.18,1.61,1.61,0,0,1,1.17-.45,1.54,1.54,0,0,1,1.63,1.63v15.36a1.61,1.61,0,0,1-.45,1.17A1.56,1.56,0,0,1,701.68,5005.22Zm0,6.4a1.57,1.57,0,0,1-1.63-1.63v-14.27a1.54,1.54,0,0,1,.46-1.18,1.61,1.61,0,0,1,1.17-.45,1.54,1.54,0,0,1,1.63,1.63V5010a1.61,1.61,0,0,1-.45,1.17A1.56,1.56,0,0,1,701.68,5011.62Zm13.15,0a1.57,1.57,0,0,1-1.63-1.63v-7.87a6,6,0,0,0-.67-3,4.31,4.31,0,0,0-1.81-1.71,5.89,5.89,0,0,0-2.61-.56,5.24,5.24,0,0,0-2.43.55,4.49,4.49,0,0,0-1.73,1.45,3.55,3.55,0,0,0-.64,2.1h-2a6.7,6.7,0,0,1,1-3.6,6.94,6.94,0,0,1,2.67-2.51,7.79,7.79,0,0,1,3.81-.93,8.15,8.15,0,0,1,4,.94,6.73,6.73,0,0,1,2.75,2.77,9.08,9.08,0,0,1,1,4.48V5010a1.57,1.57,0,0,1-1.63,1.63Z" transform="translate(-564.76 -4969.78)"/>
    <path class="cls-5" d="M723.85,4991.24a2.1,2.1,0,0,1-1.48-3.6,2.09,2.09,0,0,1,3,0,2.11,2.11,0,0,1-1.49,3.6Zm0,20.35a1.56,1.56,0,0,1-1.16-.46,1.59,1.59,0,0,1-.47-1.17v-14.24a1.55,1.55,0,0,1,.47-1.18,1.59,1.59,0,0,1,1.16-.45,1.61,1.61,0,0,1,1.19.45,1.57,1.57,0,0,1,.45,1.18V5010a1.61,1.61,0,0,1-.45,1.17A1.58,1.58,0,0,1,723.85,5011.59Z" transform="translate(-564.76 -4969.78)"/>
    <path class="cls-5" d="M737.49,5011.56a1.67,1.67,0,0,1-1.54-1.06l-6.78-14.3a1.26,1.26,0,0,1,0-1.07,1.54,1.54,0,0,1,.81-.82,1.35,1.35,0,0,1,1.11-.09,1.48,1.48,0,0,1,.85.73l6.33,13.67h-1.53L743,4995a1.43,1.43,0,0,1,.88-.73,1.58,1.58,0,0,1,1.2.09,1.38,1.38,0,0,1,.77.8,1.43,1.43,0,0,1-.07,1.09L739,5010.5A1.55,1.55,0,0,1,737.49,5011.56Z" transform="translate(-564.76 -4969.78)"/>
    <path class="cls-5" d="M756.69,5011.72a9.62,9.62,0,0,1-4.73-1.14,8.31,8.31,0,0,1-3.23-3.13,9,9,0,0,1-1.16-4.59,9.38,9.38,0,0,1,1.1-4.63,8,8,0,0,1,3.06-3.13,8.7,8.7,0,0,1,4.48-1.14,8,8,0,0,1,4.28,1.1,7.2,7.2,0,0,1,2.74,3,10.07,10.07,0,0,1,.94,4.47,1.34,1.34,0,0,1-.41,1,1.49,1.49,0,0,1-1.06.39H749.81v-2.55h12.8l-1.32.89a6.72,6.72,0,0,0-.64-2.86,4.8,4.8,0,0,0-1.72-2,4.87,4.87,0,0,0-2.72-.74,5.84,5.84,0,0,0-3.12.8,5.15,5.15,0,0,0-2,2.19,7.15,7.15,0,0,0-.67,3.16,6.05,6.05,0,0,0,.8,3.13,5.83,5.83,0,0,0,2.2,2.18,6.49,6.49,0,0,0,3.24.8,6.24,6.24,0,0,0,2-.37,6.56,6.56,0,0,0,1.68-.85,1.83,1.83,0,0,1,1-.37,1.36,1.36,0,0,1,1,.34,1.49,1.49,0,0,1,.58,1.06,1.15,1.15,0,0,1-.51,1,9.21,9.21,0,0,1-2.71,1.41A9.66,9.66,0,0,1,756.69,5011.72Z" transform="translate(-564.76 -4969.78)"/>
  </g>
</svg>
